<svg class="icon" viewBox="0 0 1024 1024" xmlns="http://www.w3.org/2000/svg" width="200" height="200"><defs><style>@font-face{font-style:normal;font-family:Arial;src:local(&quot;Tsentsiu HG&quot;)}@font-face{font-family:Arial;src:local(&quot;Tsentsiu HG&quot;)}@font-face{font-style:normal;font-family:宋体;src:local(&quot;Tsentsiu HG&quot;)}@font-face{font-family:宋体;src:local(&quot;Tsentsiu HG&quot;)}</style></defs><path d="M832 1024H192A192 192 0 0 1 0 832V192A192 192 0 0 1 192 0h640a192 192 0 0 1 192 192v640a192 192 0 0 1-192 192zm64-832a64 64 0 0 0-64-64H192a64 64 0 0 0-64 64v640c0 35.392 28.608 64 64 64h640c35.392 0 64-28.608 64-64V192zM256 640h512v128H256V640zm0-192h512v128H256V448zm0-192h512v128H256V256z"/></svg>