<svg class="icon" viewBox="0 0 1024 1024" xmlns="http://www.w3.org/2000/svg" width="200" height="200"><defs><style>@font-face{font-style:normal;font-family:Arial;src:local(&quot;Tsentsiu HG&quot;)}@font-face{font-family:Arial;src:local(&quot;Tsentsiu HG&quot;)}@font-face{font-style:normal;font-family:宋体;src:local(&quot;Tsentsiu HG&quot;)}@font-face{font-family:宋体;src:local(&quot;Tsentsiu HG&quot;)}</style></defs><path d="M896 64H192c-35.392 0-64 28.672-64 64v768c0 35.328 28.608 64 64 64h576c35.392 0 64-28.672 64-64V192H192v-64h704v768c35.392 0 64-28.672 64-64V128c0-35.328-28.608-64-64-64zM512 384h64v192h128v192H512V384zM256 576h128v-64H256v-64h192v320H256V576z"/><path d="M576 640h64v64h-64v-64zM320 640h64v64h-64v-64z"/></svg>