<svg class="icon" viewBox="0 0 1024 1024" xmlns="http://www.w3.org/2000/svg" width="200" height="200"><defs><style>@font-face{font-style:normal;font-family:Arial;src:local(&quot;Tsentsiu HG&quot;)}@font-face{font-family:Arial;src:local(&quot;Tsentsiu HG&quot;)}@font-face{font-style:normal;font-family:宋体;src:local(&quot;Tsentsiu HG&quot;)}@font-face{font-family:宋体;src:local(&quot;Tsentsiu HG&quot;)}</style></defs><path d="M512.26 1024c-277.486 0-503.3-229.662-503.3-511.96 0-282.297 225.814-512 503.3-512 277.528 0 503.302 229.703 503.302 512 0 282.298-225.774 511.96-503.301 511.96zm0-970.002C263.998 53.998 62.037 259.448 62.037 512c0 252.593 201.961 458.042 450.225 458.042 248.343 0 450.265-205.45 450.265-458.042 0-252.552-201.962-458.002-450.265-458.002zm164.4 740.26c-7.015 7.135-15.273 12.747-24.694 16.836-9.46 4.13-19.603 6.174-30.466 6.174H407.552c-10.864 0-21.006-2.045-30.467-6.174-9.42-4.089-17.679-9.701-24.694-16.837-7.015-7.135-12.548-15.353-16.596-24.653-4.01-9.3-6.014-19.323-6.014-30.146v-447.9c0-10.784 2.005-20.966 6.014-30.467 4.048-9.54 9.58-17.839 16.596-24.974 7.015-7.096 15.273-12.748 24.694-16.837 9.46-4.13 19.603-6.174 30.467-6.174H621.5c10.863 0 21.005 2.045 30.466 6.174 9.42 4.089 17.679 9.741 24.694 16.837 7.016 7.135 12.548 15.433 16.596 24.974 4.01 9.5 6.014 19.683 6.014 30.467v447.9c0 10.823-2.005 20.845-6.014 30.146-4.048 9.3-9.58 17.518-16.596 24.653zm-184.443-11.025c6.253 6.695 13.59 10.022 22.008 10.022 8.86 0 16.275-3.327 22.289-10.022 6.053-6.694 9.06-14.592 9.06-23.651 0-9.541-3.007-17.519-9.06-24.013-6.014-6.454-13.43-9.701-22.29-9.701-8.418 0-15.754 3.247-22.007 9.701-6.214 6.494-9.34 14.472-9.34 24.013 0 9.06 3.126 16.957 9.34 23.651zm67.187-523.785c-1.965-1.965-4.17-2.887-6.615-2.887h-76.527c-2.005 0-4.13.922-6.334 2.887-2.205 1.964-3.327 4.65-3.327 8.097 0 3.488 1.002 6.174 3.046 8.098 1.965 1.964 4.17 2.926 6.615 2.926h76.527c2.446 0 4.65-.962 6.615-2.926 2.044-1.924 3.046-4.61 3.046-8.098 0-3.447-1.002-6.133-3.046-8.097zm91.039 63.218H378.007v385.042h272.436V322.666z"/></svg>