<svg class="icon" viewBox="0 0 1024 1024" xmlns="http://www.w3.org/2000/svg" width="200" height="200"><defs><style>@font-face{font-style:normal;font-family:Arial;src:local(&quot;Tsentsiu HG&quot;)}@font-face{font-family:Arial;src:local(&quot;Tsentsiu HG&quot;)}@font-face{font-style:normal;font-family:宋体;src:local(&quot;Tsentsiu HG&quot;)}@font-face{font-family:宋体;src:local(&quot;Tsentsiu HG&quot;)}</style></defs><path d="M703.824 119.632a18 18 0 0 0-25.28-1.616 17.712 17.712 0 0 0-1.632 25.12 102.136 102.136 0 0 1 25.792 65.712c.512 28.104-10.152 54.648-30.016 74.744a104.24 104.24 0 0 1-74.664 31.176H425.968a104.248 104.248 0 0 1-74.664-31.176c-19.864-20.088-30.528-46.64-30.016-74.736 1.024-56.288 48.96-102.08 106.856-102.08h167.712c14.12 0 27.872 2.68 40.888 7.968a17.952 17.952 0 0 0 23.36-9.736 17.76 17.76 0 0 0-9.792-23.208 143.96 143.96 0 0 0-54.464-10.616H428.144c-77.304 0-141.304 61.464-142.68 137.024-.688 37.736 13.616 73.36 40.28 100.32a139.92 139.92 0 0 0 100.224 41.832h172.056c37.96 0 73.56-14.856 100.224-41.832 26.656-26.96 40.96-62.592 40.28-100.32-.592-32.504-12.912-63.96-34.704-88.576z"/><path d="M598.024 421.544c57.36 0 111.104-22.416 151.36-63.128 40.24-40.704 61.84-94.504 60.8-151.488C809.168 150.904 786 98.544 744.952 59.48 704.648 21.12 651.696 0 595.856 0H428.144c-55.848 0-108.8 21.12-149.096 59.472-41.048 39.064-64.208 91.44-65.232 147.456-1.04 56.984 20.56 110.784 60.8 151.48 40.248 40.72 94 63.136 151.352 63.136h29.84v136.232a17.856 17.856 0 0 0 17.92 17.792c9.896 0 17.92-7.968 17.92-17.792V403.752a17.856 17.856 0 0 0-17.92-17.8h-47.76c-47.656 0-92.328-18.64-125.792-52.48-33.44-33.832-51.392-78.544-50.536-125.904.848-46.472 20.096-89.944 54.192-122.4 33.6-31.968 77.744-49.576 124.312-49.576h167.712c46.56 0 90.712 17.6 124.312 49.584 34.096 32.448 53.344 75.92 54.192 122.392.856 47.36-17.088 92.072-50.544 125.904-33.456 33.84-78.128 52.48-125.792 52.48h-47.76c-9.888 0-17.912 7.968-17.912 17.792v584.664H491.64V617.096a17.856 17.856 0 0 0-17.92-17.8c-9.888 0-17.912 7.968-17.912 17.8V1006.2a17.856 17.856 0 0 0 17.92 17.8h76.536c9.896 0 17.92-7.968 17.92-17.8v-35.584h141.76c9.896 0 17.92-7.968 17.92-17.792v-76.28a17.856 17.856 0 0 0-17.92-17.792h-30.688V812h30.696c9.888 0 17.92-7.968 17.92-17.8v-76.272a17.856 17.856 0 0 0-17.92-17.792H568.184V421.544h29.84zm-29.84 314.184h123.848v40.68h-30.696c-9.896 0-17.92 7.968-17.92 17.792v82.344a17.856 17.856 0 0 0 17.92 17.8h30.696v40.68H568.184V735.728z"/></svg>