<svg class="icon" viewBox="0 0 1024 1024" xmlns="http://www.w3.org/2000/svg" width="200" height="200"><defs><style>@font-face{font-style:normal;font-family:Arial;src:local(&quot;Tsentsiu HG&quot;)}@font-face{font-family:Arial;src:local(&quot;Tsentsiu HG&quot;)}@font-face{font-style:normal;font-family:宋体;src:local(&quot;Tsentsiu HG&quot;)}@font-face{font-family:宋体;src:local(&quot;Tsentsiu HG&quot;)}</style></defs><path d="M255.9 320H512v64H255.9z"/><path d="M895.6 640V128H640V64H320L128 256v384H64v192c0 70.7 57.3 128 128 128h640c70.7 0 128-57.3 128-128V640h-64.4zm-32-480v480h-95.2V160h95.2zm-128.7 0v480H640V160h94.9zM160 256h160V96h288v32h-.3v512H160V256zm480 576H384v-64h256v64z"/><path d="M255.3 448h256.1v64H255.3z"/></svg>