<svg class="icon" viewBox="0 0 1340 1024" xmlns="http://www.w3.org/2000/svg" width="261.719" height="200"><defs><style>@font-face{font-style:normal;font-family:Arial;src:local(&quot;Tsentsiu HG&quot;)}@font-face{font-family:Arial;src:local(&quot;Tsentsiu HG&quot;)}@font-face{font-style:normal;font-family:宋体;src:local(&quot;Tsentsiu HG&quot;)}@font-face{font-family:宋体;src:local(&quot;Tsentsiu HG&quot;)}</style></defs><path d="M1142.154 1024h-945.23C88.34 1024 0 935.66 0 827.077V196.923C0 88.34 88.34 0 196.923 0h945.23c108.584 0 196.924 88.34 196.924 196.923v630.154c0 108.583-88.34 196.923-196.923 196.923zM196.924 78.77c-65.143 0-118.155 53.01-118.155 118.153v630.154c0 65.142 53.012 118.154 118.154 118.154h945.23c65.143 0 118.155-53.012 118.155-118.154V196.923c0-65.142-53.012-118.154-118.154-118.154h-945.23z"/><path d="M690.058 235.087H478.366c-21.78 0-39.385-17.645-39.385-39.385s17.605-39.384 39.385-39.384h211.692c21.78 0 39.384 17.644 39.384 39.384s-17.604 39.385-39.384 39.385z"/><path d="M1035.5 891.825H317.44c-86.882 0-157.538-70.656-157.538-157.538V313.856c0-86.882 70.656-157.538 157.538-157.538 21.78 0 39.385 17.644 39.385 39.384s-17.605 39.385-39.385 39.385c-43.441 0-78.77 35.328-78.77 78.769v420.43c0 43.442 35.329 78.77 78.77 78.77h718.06c43.442 0 78.77-35.328 78.77-78.77v-420.43c0-21.74 17.604-39.385 39.384-39.385s39.385 17.645 39.385 39.385v420.43c0 86.844-70.656 157.54-157.539 157.54z"/></svg>