<svg class="icon" viewBox="0 0 1024 1024" xmlns="http://www.w3.org/2000/svg" width="200" height="200"><defs><style>@font-face{font-style:normal;font-family:Arial;src:local(&quot;Tsentsiu HG&quot;)}@font-face{font-family:Arial;src:local(&quot;Tsentsiu HG&quot;)}@font-face{font-style:normal;font-family:宋体;src:local(&quot;Tsentsiu HG&quot;)}@font-face{font-family:宋体;src:local(&quot;Tsentsiu HG&quot;)}</style></defs><path d="M510.623 514.51c-97.098 0-176.093-78.995-176.093-176.092 0-97.098 78.995-176.093 176.093-176.093s176.093 78.995 176.093 176.093c-.001 97.097-78.996 176.092-176.093 176.092zm0-292.185c-64.014 0-116.093 52.079-116.093 116.093S446.609 454.51 510.623 454.51s116.093-52.079 116.093-116.092-52.08-116.093-116.093-116.093zm227.728 639.351H282.894a50.068 50.068 0 0 1-36.819-16.196c-9.471-10.331-14.204-24.276-12.986-38.261 6.024-69.171 37.563-133.266 88.809-180.479 51.557-47.5 118.581-73.659 188.726-73.659 70.146 0 137.169 26.159 188.726 73.659 51.245 47.213 82.784 111.308 88.809 180.478 1.218 13.985-3.516 27.931-12.986 38.262-9.438 10.292-22.858 16.196-36.822 16.196zm-444.284-60h433.111c-6.874-50.101-30.938-96.217-68.485-130.809-40.445-37.264-93.031-57.786-148.07-57.786-55.038 0-107.624 20.522-148.07 57.786-37.548 34.592-61.612 80.707-68.486 130.809zm-144.279 3.086H82.546c-16.568 0-30-13.432-30-30 0-77.837 27.935-150.436 78.658-204.424 26.873-28.604 58.882-50.563 94.215-65.104a158.724 158.724 0 0 1-13.421-13.364c-28.661-32.145-44.445-75.658-44.445-122.525 0-58.032 28.668-112.201 76.687-144.902 13.695-9.327 32.356-5.785 41.683 7.909 9.326 13.695 5.785 32.356-7.909 41.683-31.597 21.518-50.46 57.147-50.46 95.31 0 32.123 10.38 61.456 29.229 82.595 18.958 21.262 44.734 32.539 74.542 32.61 16.547.04 29.938 13.469 29.929 30.016-.009 16.547-13.413 29.962-29.96 29.984-60.391.081-115.921 23.83-156.36 66.872-33.708 35.878-54.728 82.42-60.656 133.34h35.512c16.568 0 30 13.432 30 30s-13.434 30-30.002 30zM941.454 804.762h-67.241c-16.568 0-30-13.432-30-30s13.432-30 30-30h35.512c-5.929-50.92-26.948-97.462-60.656-133.34-40.439-43.042-95.97-66.791-156.36-66.872-16.547-.022-29.951-13.438-29.96-29.984-.009-16.546 13.382-29.976 29.929-30.016 29.808-.071 55.584-11.348 74.541-32.61 18.849-21.14 29.229-50.473 29.229-82.595 0-38.163-18.863-73.792-50.46-95.31-13.694-9.326-17.235-27.988-7.909-41.683 9.325-13.693 27.986-17.235 41.683-7.909 48.019 32.701 76.687 86.87 76.687 144.902 0 46.867-15.784 90.38-44.445 122.525a158.724 158.724 0 0 1-13.421 13.364c35.332 14.54 67.342 36.5 94.215 65.104 50.724 53.988 78.658 126.587 78.658 204.424-.002 16.568-13.434 30-30.002 30z"/></svg>